# xmcd CD database file
#
# Track frame offsets:
#	150
#	11496
#	27018
#	44026
#	60049
#	76781
#	90007
#	103247
#	119879
#	140191
#	159190
#	170695
#	186217
#	201995
#
# Disc length: 2917 seconds
#
# Revision: 0
# Processed by: cddbd v1.5.2PL0 Copyright (c) Steve Scherf et al.
# Submitted via: CDex 1.51
#
DISCID=b40b630e
DTITLE=Menealo - Menealo
DYEAR=2002
DGENRE=Salsa
TTITLE0=El baile del pirulino
TTITLE1=El meneaito
TTITLE2=Muchacha turca
TTITLE3=Gelatina
TTITLE4=Mayonesa
TTITLE5=Pollera amarilla
TTITLE6=Guantanamera
TTITLE7=Atrevete a mirarme de frente
TTITLE8=Procura
TTITLE9=Azul
TTITLE10=El baile del pirulino, Karaoke
TTITLE11=El meneaito, Karaoke
TTITLE12=Gelatina, Karaoke
TTITLE13=Mayonesa, Karaoke
EXTD=YEAR: 2002
EXTT0=
EXTT1=
EXTT2=
EXTT3=
EXTT4=
EXTT5=
EXTT6=
EXTT7=
EXTT8=
EXTT9=
EXTT10=
EXTT11=
EXTT12=
EXTT13=
PLAYORDER=
